<svg xmlns="http://www.w3.org/2000/svg" viewBox="0 0 96 96" width="96" height="96">
<rect width="96" height="96" rx="8" fill="#D97757"/>
<g stroke="#141413" stroke-width="4" stroke-linejoin="round" stroke-linecap="round">
<path fill="#FAF9F5" d="M28.4 19.6C41.4 18.8 54.6 18.8 67.6 19.6 69.2 19.7 70 20.6 70 22.2C70.4 38 70.4 54.6 70.2 70.6L 65.8 74.8 61.4 70.6 57 74.8 52.6 70.6 48.2 74.8 43.8 70.6 39.4 74.8 35 70.6 30.6 74.8 26 70.6C25.7 54.6 25.6 38 26 22.2 26 20.6 26.8 19.7 28.4 19.6Z"/>
<path fill="none" d="M34.4 29.4C43.6 28.8 52.8 28.8 62 29.2M34.4 38C40.6 37.6 46.8 37.6 53 37.8M37.8 53.2 44.2 59.6 58 45.6"/>
</g>
</svg>
