<svg xmlns="http://www.w3.org/2000/svg" viewBox="0 0 96 96" width="96" height="96">
<rect width="96" height="96" rx="8" fill="#D97757"/>
<g stroke="#141413" stroke-width="4" stroke-linejoin="round" stroke-linecap="round">
<path fill="none" d="M27.5 32 19.5 52.2M27.5 32 36.2 52M68.5 31.6 59.8 52M68.5 31.6 76.6 52.2"/>
<path fill="#FAF9F5" d="M44 26C44 23.5 45.8 22 48 22S52 23.5 52 26L51.8 68H59C60.6 68 61.5 69 61.6 70.5L61.5 73C61.5 74.6 60.5 75.4 59 75.5 51.6 75.9 44.4 75.9 37 75.5 35.5 75.4 34.6 74.5 34.5 73V70.5C34.6 69 35.4 68.1 37 68H44.2Z"/>
<path fill="#FAF9F5" d="M22 28.8C36 27.6 60 27.4 74 28.4 75.6 28.5 76.4 29.4 76.3 31L76.2 33.2C76.1 34.8 75.2 35.4 73.8 35.3 60 34.6 36 34.8 22.2 35.7 20.8 35.8 19.8 35.1 19.8 33.6L19.8 31.2C19.8 29.8 20.6 28.9 22 28.8Z"/>
<path fill="#FAF9F5" d="M18 52.2C24.4 51.8 30.8 51.8 37 52 37 57.8 33 61.5 27.5 61.5S18 58 18 52.2ZM59 52C65.2 51.8 71.6 51.8 78 52.2 78 58 74 61.5 68.5 61.5S59 57.8 59 52Z"/>
</g>
</svg>
