<svg xmlns="http://www.w3.org/2000/svg" viewBox="0 0 96 96" width="96" height="96">
<rect width="96" height="96" rx="8" fill="#D97757"/>
<g stroke="#141413" stroke-width="4" stroke-linejoin="round" stroke-linecap="round">
<path fill="#FAF9F5" d="M37.8 21.9C38 22.4 38.4 23.5 39.2 24.2C40.7 25.8 43.3 27.6 45.4 28.8C48.4 30.7 51.6 32.6 54.8 33.9C57.1 35.9 60.1 38 62.5 39.7C64.1 42 66 44.9 66.2 48.4C65.7 51 64.2 54 62.4 56.3C59.7 58 57.2 60 54.5 62C51.9 63.3 48.3 65.2 45.9 67.2C43.4 68.4 40.6 70.2 39.5 71.7C38.4 73.3 37.7 73.5 37.9 74.1L30.2 74.3C29.7 70.6 31.6 68.1 33.9 66.2C36.4 63.5 38.5 61.9 41.7 60.4C44.8 58.1 47.3 56.6 50.2 55.1C53.1 53.7 54.9 51.5 56.4 50.5C58 49.4 57.7 48.1 57.9 48C58.1 47.9 58.2 46.6 56.3 45.5C55.3 44.5 53.2 42.4 50 40.9C47.5 39.4 44.7 38 41.3 35.6C38.6 34.1 36.2 32.5 33.4 29.8C31.6 27.9 30.1 25.4 30.4 21.7Z"/>
<path fill="none" d="M41.3 26.5H54.7M43.5 42H52.5M43.5 54H52.5M41.3 69.5H54.7"/>
<path fill="#FAF9F5" d="M65.8 21.9C66.1 25.4 64.6 27.6 62 29.9C60 32.3 57.5 34.4 54.1 35.6C51.4 37.7 48.7 39.6 45.4 40.8C43 42.7 40.9 44.5 39.9 45.3C38 46.8 38.1 47.9 38.3 47.7C37.8 48.2 38.2 49.2 39.7 50.8C40.5 51.5 43 53.4 46 55.3C48.2 56.5 51.4 58.4 54.5 60.4C57.7 61.7 59.8 63.7 62.3 66.2C64.6 67.8 65.8 70.7 66 74.1L58.2 74.4C57.7 73.5 57.7 73 56.7 71.9C54.9 70.1 52.8 68.7 50.3 67.2C47.9 65 44.3 63.5 41.7 62C39 59.7 35.8 58.1 33.8 56.1C31.9 54.3 29.7 51 29.9 48.1C30.2 45.1 31.4 41.9 33.7 40C36.1 38 39.1 35.7 41.4 34.1C44.6 32.6 47.8 30.4 50 28.9C52.9 27.4 55.4 26.1 56.2 24.2C57.7 23.2 58.2 22.6 57.7 21.8Z"/>
</g>
</svg>
