<svg xmlns="http://www.w3.org/2000/svg" viewBox="0 0 96 96" width="96" height="96">
<rect width="96" height="96" rx="8" fill="#D97757"/>
<g stroke="#141413" stroke-width="4" stroke-linejoin="round" stroke-linecap="round">
<path fill="none" d="M41 28.6C40.6 15.4 55.4 15.2 55 28.6"/>
<path fill="#FAF9F5" d="M24 70.6C23.6 61 23.8 51.6 24 42.6 24.4 33 32.4 26.8 48 26.8S71.6 33 72 42.6C72.2 51.6 72.4 61 72 70.6 71.8 75 69.4 77 65.6 77 54 77.4 42 77.4 30.4 77 26.6 77 24.2 75 24 70.6Z"/>
<path fill="#FAF9F5" d="M36.6 48.6Q48 48 59.4 48.6 64.6 48.8 64.8 54 65.2 60.2 64.8 66.4 64.6 68.4 62.6 68.4 48 68.8 33.4 68.4 31.4 68.4 31.2 66.4 30.8 60.2 31.2 54 31.4 48.8 36.6 48.6ZM31.2 57Q48 56.4 64.8 57"/>
<path fill="#141413" d="M46.2 57.2H49.8V61.4Q49.8 62.6 48 62.6 46.2 62.6 46.2 61.4Z"/>
</g>
</svg>
