<svg xmlns="http://www.w3.org/2000/svg" viewBox="0 0 96 96" width="96" height="96">
<rect width="96" height="96" rx="8" fill="#D97757"/>
<g stroke="#141413" stroke-width="4" stroke-linejoin="round" stroke-linecap="round">
<path fill="#FAF9F5" d="M27.6 60.2C27.4 42 36.4 30.6 48 30.6S68.8 42 68.4 60.2Z"/>
<path fill="#FAF9F5" d="M43.8 34.2C43.8 30.6 45.6 28.2 48 28.2S52.2 30.6 52.2 34.2V60.2H43.8Z"/>
<path fill="#FAF9F5" d="M22.4 60.2C39.4 59.4 56.6 59.4 73.6 60.2 75 60.3 75.8 61.1 75.6 62.5L75.2 65.6C75 67 74.2 67.8 72.8 67.8H23.2C21.8 67.8 21 67 20.8 65.6L20.4 62.5C20.2 61.1 21 60.3 22.4 60.2Z"/>
</g>
</svg>
